<svg xmlns="http://www.w3.org/2000/svg" version="1.1" xmlns:xlink="http://www.w3.org/1999/xlink" xmlns:svgjs="http://svgjs.dev/svgjs" width="100%" height="100%" viewBox="0 0 1000 600"><rect width="1000" height="600" x="0" y="0" fill="#072c50"/><g><circle r="166.66666666666666" cx="548.3190104166666" cy="545.8016452045966" fill="#FFFF" transform="matrix(0.35022558168566703,0,0,0.35022558168566703,-5.629937138812078,108.84627564562888)"/><path d="M465.14495348704315 579.7325637448625L465.14495348704315 579.7325637448625Q465.14495348704315 599.1459971519804 451.0673760456244 609.959620146296Q436.96141639162215 620.801625353195 413.0352111837269 620.801625353195L413.0352111837269 620.801625353195Q400.7740953476525 620.801625353195 390.35782332950595 618.9567815352673Q379.9415513113594 617.1119377173394 372.9879092284005 613.8479832702362L372.9879092284005 613.8479832702362L372.9879092284005 596.2793936810463Q380.33890228752847 599.5433481281495 391.2944363447616 602.211276110999Q402.22158818941125 604.850821881265 413.8582953486486 604.850821881265L413.8582953486486 604.850821881265Q430.2064497967478 604.850821881265 438.4940558711314 598.5215884751433Q446.75327973293156 592.1923550690215 446.75327973293156 581.3503498621224L446.75327973293156 581.3503498621224Q446.75327973293156 574.198032291079 443.68800077391296 569.3162917267159Q440.62272181489436 564.4061689497696 433.18658211801585 560.2056014874106Q425.7220602085539 556.0334162376354 412.4391847194733 551.3219689487735L412.4391847194733 551.3219689487735Q393.84883547727713 544.5670023538992 384.3407942618028 534.7751390125898Q374.8327530463284 524.9548934586967 374.8327530463284 508.0107125463439L374.8327530463284 508.0107125463439Q374.8327530463284 496.3456231745231 380.76463547628106 488.08639931272296Q386.69651790623374 479.79879323833933 397.1979365621308 475.31440365014544Q407.72773743061134 470.80163184936805 421.4363461084446 470.80163184936805L421.4363461084446 470.80163184936805Q433.4704042438509 470.80163184936805 443.4893252858284 473.04382664346497Q453.50824632780586 475.31440365014544 461.6823235518555 478.97570907341765L461.6823235518555 478.97570907341765L455.94911660998736 494.7278370572633Q448.39944806277487 491.4355003975766 439.5158155241376 489.1933056034797Q430.6321829855004 486.9511108093827 421.010612919692 486.9511108093827L421.010612919692 486.9511108093827Q407.3303864544423 486.9511108093827 400.3767443714834 492.7694643890014Q393.42310228852455 498.58781796862 393.42310228852455 508.2093880344284L393.42310228852455 508.2093880344284Q393.42310228852455 515.5603810935563 396.48838124754315 520.4705038705029Q399.55366020656174 525.3806266474494 406.5073022895206 529.240607558806Q413.4609443724795 533.1289706827463 425.2963270198013 537.6417424835238L425.2963270198013 537.6417424835238Q438.18185153271287 542.3248075598021 447.0654840713501 547.7458101632517Q455.94911660998736 553.1668127667012 460.5470350485153 560.7164813139138Q465.14495348704315 568.2945320737098 465.14495348704315 579.7325637448625ZM577.3398398296408 579.7325637448625L577.3398398296408 579.7325637448625Q577.3398398296408 599.1459971519804 563.2338801756385 609.959620146296Q549.1563027342197 620.801625353195 525.2300975263245 620.801625353195L525.2300975263245 620.801625353195Q512.9689816902501 620.801625353195 502.55270967210356 618.9567815352673Q492.136437653957 617.1119377173394 485.1827955709981 613.8479832702362L485.1827955709981 613.8479832702362L485.1827955709981 596.2793936810463Q492.5337886301261 599.5433481281495 503.4609404747757 602.211276110999Q514.4164745320088 604.850821881265 526.0531816912462 604.850821881265L526.0531816912462 604.850821881265Q542.4013361393454 604.850821881265 550.688942213729 598.5215884751433Q558.9481660755291 592.1923550690215 558.9481660755291 581.3503498621224L558.9481660755291 581.3503498621224Q558.9481660755291 574.198032291079 555.8828871165106 569.3162917267159Q552.817608157492 564.4061689497696 545.35308624803 560.2056014874106Q537.9169465511516 556.0334162376354 524.6340710620709 551.3219689487735L524.6340710620709 551.3219689487735Q506.01533960729125 544.5670023538992 496.5356806044004 534.7751390125898Q487.027639388926 524.9548934586967 487.027639388926 508.0107125463439L487.027639388926 508.0107125463439Q487.027639388926 496.3456231745231 492.95952181887867 488.08639931272296Q498.8630220362478 479.79879323833933 509.3928229047284 475.31440365014544Q519.9226237732089 470.80163184936805 533.6028502384587 470.80163184936805L533.6028502384587 470.80163184936805Q545.6652905864486 470.80163184936805 555.684211628426 473.04382664346497Q565.7031326704034 475.31440365014544 573.8772098944531 478.97570907341765L573.8772098944531 478.97570907341765L568.144002952585 494.7278370572633Q560.5943344053725 491.4355003975766 551.7107018667352 489.1933056034797Q542.7986871155144 486.9511108093827 533.2054992622895 486.9511108093827L533.2054992622895 486.9511108093827Q519.5252727970399 486.9511108093827 512.571630714081 492.7694643890014Q505.61798863112216 498.58781796862 505.61798863112216 508.2093880344284L505.61798863112216 508.2093880344284Q505.61798863112216 515.5603810935563 508.68326759014076 520.4705038705029Q511.74854654915936 525.3806266474494 518.7021886321182 529.240607558806Q525.6558307150772 533.1289706827463 537.4912133623989 537.6417424835238L537.4912133623989 537.6417424835238Q550.3767378753105 542.3248075598021 559.2603704139477 547.7458101632517Q568.144002952585 553.1668127667012 572.7419213911129 560.7164813139138Q577.3398398296408 568.2945320737098 577.3398398296408 579.7325637448625ZM723.6501456976121 544.3683268658147L723.6501456976121 544.3683268658147Q723.6501456976121 581.3503498621224 703.5271569759066 600.0542279546526Q683.4041682542011 618.7581060471828 647.4439049108996 618.7581060471828L647.4439049108996 618.7581060471828L606.7721942787362 618.7581060471828L606.7721942787362 472.84515115538045L651.7296190110089 472.84515115538045Q673.8109804009762 472.84515115538045 689.9320771484074 481.01922837943005Q706.0815561084221 489.1933056034797 714.8800420093089 505.0305802250758Q723.6501456976121 520.8678548466719 723.6501456976121 544.3683268658147ZM704.2367122904943 544.9927355426516L704.2367122904943 544.9927355426516Q704.2367122904943 515.759056581641 689.8469305106569 502.16397675414174Q675.4287665182362 488.5972791392261 649.0616910281594 488.5972791392261L649.0616910281594 488.5972791392261L625.1638680328476 488.5972791392261L625.1638680328476 603.0343602759206L644.9746524161346 603.0343602759206Q704.2367122904943 603.0343602759206 704.2367122904943 544.9927355426516Z " fill="#072c50" transform="matrix(0.35022558168566703,0,0,0.35022558168566703,-5.629937138812078,108.84627564562888)"/><path d="M865.9648583419835 556.1557980276189L865.9648583419835 556.1557980276189Q865.9648583419835 570.4057980276189 855.6315250086501 578.3432980276189Q845.2773583419835 586.3016313609522 827.7148583419835 586.3016313609522L827.7148583419835 586.3016313609522Q818.7148583419835 586.3016313609522 811.0690250086501 584.9474646942856Q803.4231916753167 583.5932980276189 798.3190250086501 581.1974646942856L798.3190250086501 581.1974646942856L798.3190250086501 568.3016313609522Q803.7148583419835 570.6974646942856 811.7565250086501 572.6557980276189Q819.7773583419835 574.5932980276189 828.3190250086501 574.5932980276189L828.3190250086501 574.5932980276189Q840.3190250086501 574.5932980276189 846.4023583419835 569.9474646942856Q852.4648583419835 565.3016313609522 852.4648583419835 557.3432980276189L852.4648583419835 557.3432980276189Q852.4648583419835 552.0932980276189 850.2148583419835 548.5099646942856Q847.9648583419835 544.9057980276189 842.5065250086501 541.8224646942856Q837.0273583419835 538.7599646942856 827.2773583419835 535.3016313609522L827.2773583419835 535.3016313609522Q813.6315250086501 530.3432980276189 806.6523583419835 523.1557980276189Q799.6731916753167 515.9474646942856 799.6731916753167 503.50996469428554L799.6731916753167 503.50996469428554Q799.6731916753167 494.94746469428554 804.0273583419835 488.88496469428554Q808.3815250086501 482.80163136095223 816.0898583419835 479.50996469428554Q823.8190250086501 476.19746469428554 833.8815250086501 476.19746469428554L833.8815250086501 476.19746469428554Q842.7148583419835 476.19746469428554 850.0690250086501 477.84329802761886Q857.4231916753167 479.50996469428554 863.4231916753167 482.19746469428554L863.4231916753167 482.19746469428554L859.2148583419835 493.75996469428554Q853.6731916753167 491.34329802761886 847.1523583419835 489.69746469428554Q840.6315250086501 488.05163136095223 833.5690250086501 488.05163136095223L833.5690250086501 488.05163136095223Q823.5273583419835 488.05163136095223 818.4231916753167 492.32246469428554Q813.3190250086501 496.59329802761886 813.3190250086501 503.65579802761886L813.3190250086501 503.65579802761886Q813.3190250086501 509.05163136095223 815.5690250086501 512.6557980276189Q817.8190250086501 516.2599646942856 822.9231916753167 519.0932980276189Q828.0273583419835 521.9474646942856 836.7148583419835 525.2599646942856L836.7148583419835 525.2599646942856Q846.1731916753167 528.6974646942856 852.6940250086501 532.6766313609522Q859.2148583419835 536.6557980276189 862.5898583419835 542.1974646942856Q865.9648583419835 547.7599646942856 865.9648583419835 556.1557980276189ZM912.6315250086502 575.5099646942856L912.6315250086502 575.5099646942856Q915.6315250086502 575.5099646942856 918.7773583419835 574.9682980276189Q921.9231916753167 574.4474646942856 923.8815250086502 573.8432980276189L923.8815250086502 573.8432980276189L923.8815250086502 583.9057980276189Q921.7773583419835 584.9474646942856 917.8815250086502 585.6349646942856Q913.9648583419835 586.3016313609522 910.3815250086502 586.3016313609522L910.3815250086502 586.3016313609522Q904.0690250086502 586.3016313609522 898.7565250086502 584.1349646942856Q893.4231916753167 581.9474646942856 890.1315250086501 576.5516313609522Q886.8190250086501 571.1557980276189 886.8190250086501 561.4057980276189L886.8190250086501 561.4057980276189L886.8190250086501 514.5932980276189L875.4231916753167 514.5932980276189L875.4231916753167 508.30163136095223L886.9648583419835 503.0516313609522L892.2148583419835 485.94746469428554L900.0273583419835 485.94746469428554L900.0273583419835 504.40579802761886L923.2773583419835 504.40579802761886L923.2773583419835 514.5932980276189L900.0273583419835 514.5932980276189L900.0273583419835 561.0932980276189Q900.0273583419835 568.4474646942856 903.5481916753167 571.9682980276189Q907.0690250086502 575.5099646942856 912.6315250086502 575.5099646942856ZM993.9231916753167 504.40579802761886L1007.1315250086502 504.40579802761886L1007.1315250086502 584.8016313609522L996.3190250086502 584.8016313609522L994.3815250086502 574.1557980276189L993.7773583419835 574.1557980276189Q989.8815250086502 580.4474646942856 982.9648583419835 583.3849646942856Q976.0690250086502 586.3016313609522 968.2773583419835 586.3016313609522L968.2773583419835 586.3016313609522Q953.7148583419835 586.3016313609522 946.3815250086502 579.3224646942856Q939.0273583419835 572.3432980276189 939.0273583419835 557.0516313609522L939.0273583419835 557.0516313609522L939.0273583419835 504.40579802761886L952.3815250086502 504.40579802761886L952.3815250086502 556.1557980276189Q952.3815250086502 575.3432980276189 970.2148583419835 575.3432980276189L970.2148583419835 575.3432980276189Q983.5690250086502 575.3432980276189 988.7565250086502 567.8432980276189Q993.9231916753167 560.3432980276189 993.9231916753167 546.2599646942856L993.9231916753167 546.2599646942856L993.9231916753167 504.40579802761886ZM1061.1315250086502 586.3016313609522L1061.1315250086502 586.3016313609522Q1046.1315250086502 586.3016313609522 1037.1315250086502 575.8849646942856Q1028.1315250086502 565.4474646942856 1028.1315250086502 544.7599646942856L1028.1315250086502 544.7599646942856Q1028.1315250086502 524.0516313609522 1037.1940250086502 513.4682980276189Q1046.2773583419835 502.90579802761886 1061.2773583419835 502.90579802761886L1061.2773583419835 502.90579802761886Q1070.5690250086502 502.90579802761886 1076.5065250086502 506.3432980276189Q1082.4231916753167 509.80163136095223 1086.1731916753167 514.7599646942856L1086.1731916753167 514.7599646942856L1087.0690250086502 514.7599646942856Q1086.9231916753167 512.8016313609521 1086.5481916753167 508.96829802761886Q1086.1731916753167 505.1557980276189 1086.1731916753167 502.90579802761886L1086.1731916753167 502.90579802761886L1086.1731916753167 470.80163136095223L1099.3815250086502 470.80163136095223L1099.3815250086502 584.8016313609522L1088.7148583419835 584.8016313609522L1086.7773583419835 574.0099646942856L1086.1731916753167 574.0099646942856Q1082.5690250086502 579.0932980276189 1076.5690250086502 582.6974646942856Q1070.5690250086502 586.3016313609522 1061.1315250086502 586.3016313609522ZM1063.2148583419835 575.3432980276189L1063.2148583419835 575.3432980276189Q1075.9648583419835 575.3432980276189 1081.1523583419835 568.3849646942856Q1086.3190250086502 561.4057980276189 1086.3190250086502 547.3016313609522L1086.3190250086502 547.3016313609522L1086.3190250086502 544.9057980276189Q1086.3190250086502 529.9057980276189 1081.3815250086502 521.8849646942856Q1076.4231916753167 513.8432980276189 1063.0690250086502 513.8432980276189L1063.0690250086502 513.8432980276189Q1052.4231916753167 513.8432980276189 1047.0898583419835 522.3224646942856Q1041.7773583419835 530.8016313609522 1041.7773583419835 545.0516313609522L1041.7773583419835 545.0516313609522Q1041.7773583419835 559.4474646942856 1047.0898583419835 567.4057980276189Q1052.4231916753167 575.3432980276189 1063.2148583419835 575.3432980276189ZM1155.9231916753167 502.90579802761886L1155.9231916753167 502.90579802761886Q1166.2773583419835 502.90579802761886 1173.6940250086502 507.40579802761886Q1181.1315250086502 511.90579802761886 1185.0898583419835 520.0724646942856Q1189.0690250086502 528.2599646942856 1189.0690250086502 539.1974646942856L1189.0690250086502 539.1974646942856L1189.0690250086502 547.1557980276189L1134.0273583419835 547.1557980276189Q1134.3190250086502 560.8016313609522 1141.0065250086502 567.9266313609522Q1147.6731916753167 575.0516313609522 1159.6731916753167 575.0516313609522L1159.6731916753167 575.0516313609522Q1167.3190250086502 575.0516313609522 1173.2565250086502 573.6349646942856Q1179.1731916753167 572.1974646942856 1185.4648583419835 569.5099646942856L1185.4648583419835 569.5099646942856L1185.4648583419835 581.0516313609522Q1179.3190250086502 583.7599646942856 1173.3190250086502 585.0307980276189Q1167.3190250086502 586.3016313609522 1159.0690250086502 586.3016313609522L1159.0690250086502 586.3016313609522Q1147.6731916753167 586.3016313609522 1138.9023583419835 581.6557980276189Q1130.1315250086502 577.0099646942856 1125.2565250086502 567.7807980276189Q1120.3815250086502 558.5516313609522 1120.3815250086502 545.1974646942856L1120.3815250086502 545.1974646942856Q1120.3815250086502 532.0099646942856 1124.7981916753167 522.5516313609522Q1129.2148583419835 513.0932980276189 1137.2565250086502 508.00996469428554Q1145.2773583419835 502.90579802761886 1155.9231916753167 502.90579802761886ZM1155.7773583419835 513.6974646942856L1155.7773583419835 513.6974646942856Q1146.3190250086502 513.6974646942856 1140.8398583419835 519.7807980276189Q1135.3815250086502 525.8432980276189 1134.3190250086502 536.6557980276189L1134.3190250086502 536.6557980276189L1175.2773583419835 536.6557980276189Q1175.1315250086502 526.4474646942856 1170.4648583419835 520.0724646942856Q1165.8190250086502 513.6974646942856 1155.7773583419835 513.6974646942856ZM1248.1731916753167 502.90579802761886L1248.1731916753167 502.90579802761886Q1262.5690250086502 502.90579802761886 1269.9231916753167 509.88496469428554Q1277.2773583419835 516.8432980276189 1277.2773583419835 532.4474646942856L1277.2773583419835 532.4474646942856L1277.2773583419835 584.8016313609522L1264.2148583419835 584.8016313609522L1264.2148583419835 533.3432980276189Q1264.2148583419835 514.0099646942856 1246.2148583419835 514.0099646942856L1246.2148583419835 514.0099646942856Q1232.8815250086502 514.0099646942856 1227.7773583419835 521.5099646942856Q1222.6731916753167 529.0099646942856 1222.6731916753167 543.0932980276189L1222.6731916753167 543.0932980276189L1222.6731916753167 584.8016313609522L1209.4648583419835 584.8016313609522L1209.4648583419835 504.40579802761886L1220.1315250086502 504.40579802761886L1222.0690250086502 515.3432980276189L1222.8190250086502 515.3432980276189Q1226.7148583419835 509.05163136095223 1233.6315250086502 505.96829802761886Q1240.5273583419835 502.90579802761886 1248.1731916753167 502.90579802761886ZM1329.0273583419835 575.5099646942856L1329.0273583419835 575.5099646942856Q1332.0273583419835 575.5099646942856 1335.1731916753167 574.9682980276189Q1338.31902500865 574.4474646942856 1340.2773583419835 573.8432980276189L1340.2773583419835 573.8432980276189L1340.2773583419835 583.9057980276189Q1338.1731916753167 584.9474646942856 1334.2773583419835 585.6349646942856Q1330.38152500865 586.3016313609522 1326.7773583419835 586.3016313609522L1326.7773583419835 586.3016313609522Q1320.4648583419835 586.3016313609522 1315.1523583419835 584.1349646942856Q1309.81902500865 581.9474646942856 1306.5273583419835 576.5516313609522Q1303.2148583419835 571.1557980276189 1303.2148583419835 561.4057980276189L1303.2148583419835 561.4057980276189L1303.2148583419835 514.5932980276189L1291.8190250086502 514.5932980276189L1291.8190250086502 508.30163136095223L1303.3815250086502 503.0516313609522L1308.63152500865 485.94746469428554L1316.4231916753167 485.94746469428554L1316.4231916753167 504.40579802761886L1339.6731916753167 504.40579802761886L1339.6731916753167 514.5932980276189L1316.4231916753167 514.5932980276189L1316.4231916753167 561.0932980276189Q1316.4231916753167 568.4474646942856 1319.94402500865 571.9682980276189Q1323.4648583419835 575.5099646942856 1329.0273583419835 575.5099646942856ZM1457.8815250086502 556.1557980276189L1457.8815250086502 556.1557980276189Q1457.8815250086502 570.4057980276189 1447.5273583419835 578.3432980276189Q1437.1731916753167 586.3016313609522 1419.6315250086502 586.3016313609522L1419.6315250086502 586.3016313609522Q1410.6315250086502 586.3016313609522 1402.9648583419835 584.9474646942856Q1395.31902500865 583.5932980276189 1390.2148583419832 581.1974646942856L1390.2148583419832 581.1974646942856L1390.2148583419832 568.3016313609522Q1395.63152500865 570.6974646942856 1403.6523583419835 572.6557980276189Q1411.6731916753167 574.5932980276189 1420.2148583419835 574.5932980276189L1420.2148583419835 574.5932980276189Q1432.2148583419835 574.5932980276189 1438.2981916753167 569.9474646942856Q1444.3815250086502 565.3016313609522 1444.3815250086502 557.3432980276189L1444.3815250086502 557.3432980276189Q1444.3815250086502 552.0932980276189 1442.1315250086502 548.5099646942856Q1439.8815250086502 544.9057980276189 1434.4023583419837 541.8224646942856Q1428.9231916753167 538.7599646942856 1419.1731916753167 535.3016313609522L1419.1731916753167 535.3016313609522Q1405.5273583419835 530.3432980276189 1398.5481916753167 523.1557980276189Q1391.56902500865 515.9474646942856 1391.56902500865 503.50996469428554L1391.56902500865 503.50996469428554Q1391.56902500865 494.94746469428554 1395.9231916753167 488.88496469428554Q1400.2773583419835 482.80163136095223 1408.0065250086502 479.50996469428554Q1415.7148583419835 476.19746469428554 1425.7773583419837 476.19746469428554L1425.7773583419837 476.19746469428554Q1434.6315250086502 476.19746469428554 1441.9648583419835 477.84329802761886Q1449.3190250086502 479.50996469428554 1455.3190250086502 482.19746469428554L1455.3190250086502 482.19746469428554L1451.1315250086502 493.75996469428554Q1445.5690250086502 491.34329802761886 1439.0481916753167 489.69746469428554Q1432.5273583419835 488.05163136095223 1425.4648583419835 488.05163136095223L1425.4648583419835 488.05163136095223Q1415.4231916753167 488.05163136095223 1410.3190250086502 492.32246469428554Q1405.2148583419835 496.59329802761886 1405.2148583419835 503.65579802761886L1405.2148583419835 503.65579802761886Q1405.2148583419835 509.05163136095223 1407.4648583419835 512.6557980276189Q1409.7148583419835 516.2599646942856 1414.8190250086502 519.0932980276189Q1419.9231916753167 521.9474646942856 1428.6315250086502 525.2599646942856L1428.6315250086502 525.2599646942856Q1438.0690250086502 528.6974646942856 1444.5898583419835 532.6766313609522Q1451.1315250086502 536.6557980276189 1454.5065250086502 542.1974646942856Q1457.8815250086502 547.7599646942856 1457.8815250086502 556.1557980276189ZM1565.8815250086502 502.90579802761886L1565.8815250086502 502.90579802761886Q1579.5273583419835 502.90579802761886 1586.2773583419835 509.88496469428554Q1593.0273583419835 516.8432980276189 1593.0273583419835 532.4474646942856L1593.0273583419835 532.4474646942856L1593.0273583419835 584.8016313609522L1579.9648583419835 584.8016313609522L1579.9648583419835 533.0516313609522Q1579.9648583419835 514.0099646942856 1563.6315250086502 514.0099646942856L1563.6315250086502 514.0099646942856Q1551.9231916753167 514.0099646942856 1546.9023583419835 520.7599646942856Q1541.8815250086502 527.5099646942856 1541.8815250086502 540.4057980276189L1541.8815250086502 540.4057980276189L1541.8815250086502 584.8016313609522L1528.8190250086502 584.8016313609522L1528.8190250086502 533.0516313609522Q1528.8190250086502 514.0099646942856 1512.3190250086502 514.0099646942856L1512.3190250086502 514.0099646942856Q1500.1731916753167 514.0099646942856 1495.5273583419835 521.5099646942856Q1490.8815250086502 529.0099646942856 1490.8815250086502 543.0932980276189L1490.8815250086502 543.0932980276189L1490.8815250086502 584.8016313609522L1477.6731916753167 584.8016313609522L1477.6731916753167 504.40579802761886L1488.3190250086502 504.40579802761886L1490.2773583419835 515.3432980276189L1491.0273583419835 515.3432980276189Q1494.7773583419837 509.05163136095223 1501.1523583419835 505.96829802761886Q1507.5273583419835 502.90579802761886 1514.7148583419835 502.90579802761886L1514.7148583419835 502.90579802761886Q1533.6315250086502 502.90579802761886 1539.3190250086502 516.4057980276189L1539.3190250086502 516.4057980276189L1540.0690250086502 516.4057980276189Q1544.1315250086502 509.50996469428554 1551.0898583419835 506.19746469428554Q1558.0690250086502 502.90579802761886 1565.8815250086502 502.90579802761886ZM1648.3815250086502 503.0516313609522L1648.3815250086502 503.0516313609522Q1663.0690250086502 503.0516313609522 1670.1315250086502 509.50996469428554Q1677.1731916753167 515.9474646942856 1677.1731916753167 530.0516313609522L1677.1731916753167 530.0516313609522L1677.1731916753167 584.8016313609522L1667.5690250086502 584.8016313609522L1665.0273583419835 573.4057980276189L1664.4231916753167 573.4057980276189Q1659.1731916753167 580.0099646942856 1653.4023583419835 583.1557980276189Q1647.6315250086502 586.3016313609522 1637.4231916753167 586.3016313609522L1637.4231916753167 586.3016313609522Q1626.4648583419835 586.3016313609522 1619.2773583419835 580.5307980276189Q1612.0690250086502 574.7599646942856 1612.0690250086502 562.4474646942856L1612.0690250086502 562.4474646942856Q1612.0690250086502 550.4474646942856 1621.5273583419835 543.9266313609521Q1630.9648583419835 537.4057980276189 1650.6315250086502 536.8016313609522L1650.6315250086502 536.8016313609522L1664.2773583419835 536.3432980276189L1664.2773583419835 531.5516313609522Q1664.2773583419835 521.5099646942856 1659.9231916753167 517.5932980276189Q1655.5690250086502 513.6974646942856 1647.6315250086502 513.6974646942856L1647.6315250086502 513.6974646942856Q1641.3190250086502 513.6974646942856 1635.6315250086502 515.5724646942856Q1629.9231916753167 517.4474646942856 1624.9648583419835 519.8432980276189L1624.9648583419835 519.8432980276189L1620.9231916753167 509.94746469428554Q1626.1731916753167 507.0932980276189 1633.3815250086502 505.07246469428554Q1640.5690250086502 503.0516313609522 1648.3815250086502 503.0516313609522ZM1664.1315250086502 545.5099646942856L1652.2773583419835 545.9474646942856Q1637.2773583419835 546.5516313609522 1631.5065250086502 550.7599646942856Q1625.7148583419835 554.9474646942856 1625.7148583419835 562.5932980276189L1625.7148583419835 562.5932980276189Q1625.7148583419835 569.3432980276189 1629.8398583419835 572.5099646942856Q1633.9648583419835 575.6557980276189 1640.4231916753167 575.6557980276189L1640.4231916753167 575.6557980276189Q1650.6315250086502 575.6557980276189 1657.3815250086502 570.0307980276189Q1664.1315250086502 564.4057980276189 1664.1315250086502 552.6974646942856L1664.1315250086502 552.6974646942856L1664.1315250086502 545.5099646942856ZM1739.5690250086502 502.90579802761886L1739.5690250086502 502.90579802761886Q1741.8190250086502 502.90579802761886 1744.4440250086502 503.13496469428554Q1747.0690250086502 503.34329802761886 1749.0273583419835 503.8016313609522L1749.0273583419835 503.8016313609522L1747.3815250086502 515.9474646942856Q1745.4231916753167 515.5099646942856 1743.0898583419835 515.1974646942856Q1740.7773583419835 514.9057980276189 1738.6731916753167 514.9057980276189L1738.6731916753167 514.9057980276189Q1732.5273583419835 514.9057980276189 1727.1315250086502 518.2807980276189Q1721.7148583419835 521.6557980276189 1718.5065250086502 527.7182980276189Q1715.2773583419835 533.8016313609522 1715.2773583419835 541.9057980276189L1715.2773583419835 541.9057980276189L1715.2773583419835 584.8016313609522L1702.0690250086502 584.8016313609522L1702.0690250086502 504.40579802761886L1712.8815250086502 504.40579802761886L1714.3815250086502 519.0932980276189L1714.9648583419835 519.0932980276189Q1718.8815250086502 512.5099646942856 1725.0273583419835 507.69746469428554Q1731.1731916753167 502.90579802761886 1739.5690250086502 502.90579802761886ZM1790.8815250086502 575.5099646942856L1790.8815250086502 575.5099646942856Q1793.8815250086502 575.5099646942856 1797.0273583419835 574.9682980276189Q1800.1731916753167 574.4474646942856 1802.1315250086502 573.8432980276189L1802.1315250086502 573.8432980276189L1802.1315250086502 583.9057980276189Q1800.0273583419835 584.9474646942856 1796.1315250086502 585.6349646942856Q1792.2148583419835 586.3016313609522 1788.6315250086502 586.3016313609522L1788.6315250086502 586.3016313609522Q1782.3190250086502 586.3016313609522 1777.0065250086502 584.1349646942856Q1771.6731916753167 581.9474646942856 1768.3815250086502 576.5516313609522Q1765.0690250086502 571.1557980276189 1765.0690250086502 561.4057980276189L1765.0690250086502 561.4057980276189L1765.0690250086502 514.5932980276189L1753.6731916753167 514.5932980276189L1753.6731916753167 508.30163136095223L1765.2148583419835 503.0516313609522L1770.4648583419835 485.94746469428554L1778.2773583419835 485.94746469428554L1778.2773583419835 504.40579802761886L1801.5273583419835 504.40579802761886L1801.5273583419835 514.5932980276189L1778.2773583419835 514.5932980276189L1778.2773583419835 561.0932980276189Q1778.2773583419835 568.4474646942856 1781.7981916753167 571.9682980276189Q1785.3190250086502 575.5099646942856 1790.8815250086502 575.5099646942856ZM1944.7773583419832 530.1974646942856L1944.7773583419832 530.1974646942856Q1944.7773583419832 557.3432980276189 1930.0065250086502 571.0724646942856Q1915.2148583419832 584.8016313609522 1888.8190250086502 584.8016313609522L1888.8190250086502 584.8016313609522L1858.9648583419832 584.8016313609522L1858.9648583419832 477.69746469428554L1891.9648583419832 477.69746469428554Q1908.1731916753167 477.69746469428554 1920.0273583419832 483.69746469428554Q1931.8815250086502 489.69746469428554 1938.3190250086502 501.32246469428554Q1944.7773583419832 512.9474646942856 1944.7773583419832 530.1974646942856ZM1930.5273583419832 530.6557980276189L1930.5273583419832 530.6557980276189Q1930.5273583419832 509.19746469428554 1919.9440250086502 499.21829802761886Q1909.3815250086502 489.25996469428554 1890.0273583419837 489.25996469428554L1890.0273583419837 489.25996469428554L1872.4648583419832 489.25996469428554L1872.4648583419832 573.2599646942856L1887.0273583419832 573.2599646942856Q1930.5273583419832 573.2599646942856 1930.5273583419832 530.6557980276189ZM1973.4231916753167 474.25996469428554L1973.4231916753167 474.25996469428554Q1976.4231916753167 474.25996469428554 1978.7565250086502 476.28079802761886Q1981.0690250086502 478.30163136095223 1981.0690250086502 482.65579802761886L1981.0690250086502 482.65579802761886Q1981.0690250086502 486.84329802761886 1978.7565250086502 488.94746469428554Q1976.4231916753167 491.05163136095223 1973.4231916753167 491.05163136095223L1973.4231916753167 491.05163136095223Q1970.1315250086502 491.05163136095223 1967.8815250086498 488.94746469428554Q1965.6315250086502 486.84329802761886 1965.6315250086502 482.65579802761886L1965.6315250086502 482.65579802761886Q1965.6315250086502 478.30163136095223 1967.8815250086498 476.28079802761886Q1970.1315250086502 474.25996469428554 1973.4231916753167 474.25996469428554ZM1966.6731916753167 504.40579802761886L1979.8815250086502 504.40579802761886L1979.8815250086502 584.8016313609522L1966.6731916753167 584.8016313609522L1966.6731916753167 504.40579802761886ZM2057.714858341983 562.5932980276189L2057.714858341983 562.5932980276189Q2057.714858341983 574.3016313609522 2049.027358341983 580.3016313609522Q2040.3190250086502 586.3016313609522 2025.6315250086502 586.3016313609522L2025.6315250086502 586.3016313609522Q2017.2148583419832 586.3016313609522 2011.1523583419837 584.9474646942856Q2005.0690250086502 583.5932980276189 2000.4231916753167 581.1974646942856L2000.4231916753167 581.1974646942856L2000.4231916753167 569.1974646942856Q2005.2148583419832 571.5932980276189 2012.0481916753167 573.6349646942856Q2018.8815250086502 575.6557980276189 2025.9231916753167 575.6557980276189L2025.9231916753167 575.6557980276189Q2035.9648583419832 575.6557980276189 2040.4648583419832 572.4266313609522Q2044.9648583419832 569.1974646942856 2044.9648583419832 563.8016313609522L2044.9648583419832 563.8016313609522Q2044.9648583419832 560.8016313609522 2043.3190250086502 558.4057980276189Q2041.6731916753167 556.0099646942856 2037.4023583419832 553.5932980276189Q2033.1315250086502 551.1974646942856 2025.1731916753167 548.1974646942856L2025.1731916753167 548.1974646942856Q2017.3815250086502 545.1974646942856 2011.8190250086502 542.1974646942856Q2006.2773583419832 539.1974646942856 2003.2773583419832 535.0099646942856Q2000.2773583419832 530.8016313609522 2000.2773583419832 524.1974646942856L2000.2773583419832 524.1974646942856Q2000.2773583419832 514.0099646942856 2008.5898583419832 508.44746469428554Q2016.9231916753167 502.90579802761886 2030.4231916753167 502.90579802761886L2030.4231916753167 502.90579802761886Q2037.7773583419832 502.90579802761886 2044.1523583419832 504.32246469428554Q2050.527358341983 505.75996469428554 2056.06902500865 508.30163136095223L2056.06902500865 508.30163136095223L2051.56902500865 518.8016313609522Q2046.4648583419832 516.6974646942856 2040.9231916753167 515.1974646942856Q2035.3815250086502 513.6974646942856 2029.5273583419832 513.6974646942856L2029.5273583419832 513.6974646942856Q2021.4231916753167 513.6974646942856 2017.1523583419832 516.3224646942856Q2012.8815250086502 518.9474646942856 2012.8815250086502 523.4474646942856L2012.8815250086502 523.4474646942856Q2012.8815250086502 526.7599646942856 2014.8190250086502 529.0724646942856Q2016.7773583419832 531.4057980276189 2021.3398583419832 533.5724646942856Q2025.9231916753167 535.7599646942856 2033.5690250086502 538.7599646942856L2033.5690250086502 538.7599646942856Q2041.2148583419832 541.5932980276189 2046.6315250086502 544.5932980276189Q2052.027358341984 547.5932980276189 2054.88152500865 551.8849646942856Q2057.714858341983 556.1557980276189 2057.714858341983 562.5932980276189ZM2109.464858341983 586.3016313609522L2109.464858341983 586.3016313609522Q2098.81902500865 586.3016313609522 2090.50652500865 581.9474646942856Q2082.173191675317 577.5932980276189 2077.44402500865 568.4474646942856Q2072.714858341983 559.3016313609522 2072.714858341983 545.0516313609522L2072.714858341983 545.0516313609522Q2072.714858341983 530.1974646942856 2077.673191675317 520.9057980276189Q2082.63152500865 511.59329802761886 2091.089858341984 507.25996469428554Q2099.56902500865 502.90579802761886 2110.38152500865 502.90579802761886L2110.38152500865 502.90579802761886Q2116.527358341983 502.90579802761886 2122.214858341983 504.1766313609522Q2127.923191675317 505.44746469428554 2131.527358341984 507.25996469428554L2131.527358341984 507.25996469428554L2127.464858341983 518.1974646942856Q2123.88152500865 516.8432980276189 2119.06902500865 515.6557980276189Q2114.277358341984 514.4474646942856 2110.06902500865 514.4474646942856L2110.06902500865 514.4474646942856Q2086.38152500865 514.4474646942856 2086.38152500865 544.9057980276189L2086.38152500865 544.9057980276189Q2086.38152500865 559.4474646942856 2092.152358341984 567.1766313609522Q2097.923191675317 574.9057980276189 2109.31902500865 574.9057980276189L2109.31902500865 574.9057980276189Q2115.923191675317 574.9057980276189 2120.94402500865 573.5516313609522Q2125.964858341984 572.1974646942856 2130.173191675317 570.2599646942856L2130.173191675317 570.2599646942856L2130.173191675317 581.9474646942856Q2126.13152500865 584.0516313609522 2121.25652500865 585.1766313609522Q2116.38152500865 586.3016313609522 2109.464858341983 586.3016313609522ZM2155.964858341984 474.25996469428554L2155.964858341984 474.25996469428554Q2158.964858341983 474.25996469428554 2161.298191675317 476.28079802761886Q2163.63152500865 478.30163136095223 2163.63152500865 482.65579802761886L2163.63152500865 482.65579802761886Q2163.63152500865 486.84329802761886 2161.298191675317 488.94746469428554Q2158.964858341983 491.05163136095223 2155.964858341984 491.05163136095223L2155.964858341984 491.05163136095223Q2152.673191675317 491.05163136095223 2150.423191675317 488.94746469428554Q2148.173191675317 486.84329802761886 2148.173191675317 482.65579802761886L2148.173191675317 482.65579802761886Q2148.173191675317 478.30163136095223 2150.423191675317 476.28079802761886Q2152.673191675317 474.25996469428554 2155.964858341984 474.25996469428554ZM2149.214858341984 504.40579802761886L2162.423191675317 504.40579802761886L2162.423191675317 584.8016313609522L2149.214858341984 584.8016313609522L2149.214858341984 504.40579802761886ZM2226.173191675317 502.90579802761886L2226.173191675317 502.90579802761886Q2241.027358341983 502.90579802761886 2250.089858341983 513.2599646942856Q2259.173191675317 523.5932980276189 2259.173191675317 544.4474646942856L2259.173191675317 544.4474646942856Q2259.173191675317 565.0099646942856 2250.089858341983 575.6557980276189Q2241.027358341983 586.3016313609522 2226.027358341984 586.3016313609522L2226.027358341984 586.3016313609522Q2216.714858341983 586.3016313609522 2210.652358341984 582.7807980276189Q2204.56902500865 579.2599646942856 2201.13152500865 574.5932980276189L2201.13152500865 574.5932980276189L2200.214858341984 574.5932980276189Q2200.527358341984 577.1557980276189 2200.81902500865 581.0516313609522Q2201.13152500865 584.9474646942856 2201.13152500865 587.8016313609522L2201.13152500865 587.8016313609522L2201.13152500865 620.8016313609521L2187.923191675317 620.8016313609521L2187.923191675317 504.40579802761886L2198.714858341984 504.40579802761886L2200.527358341984 515.3432980276189L2201.13152500865 515.3432980276189Q2204.714858341984 510.09329802761886 2210.56902500865 506.50996469428554Q2216.423191675317 502.90579802761886 2226.173191675317 502.90579802761886ZM2223.777358341983 514.0099646942856L2223.777358341983 514.0099646942856Q2211.464858341984 514.0099646942856 2206.44402500865 520.9057980276189Q2201.423191675317 527.8016313609522 2201.13152500865 541.9057980276189L2201.13152500865 541.9057980276189L2201.13152500865 544.4474646942856Q2201.13152500865 559.3016313609522 2206.00652500865 567.3224646942856Q2210.88152500865 575.3432980276189 2224.06902500865 575.3432980276189L2224.06902500865 575.3432980276189Q2231.423191675317 575.3432980276189 2236.152358341984 571.3016313609521Q2240.88152500865 567.2599646942856 2243.19402500865 560.2807980276189Q2245.527358341984 553.3016313609522 2245.527358341984 544.3016313609522L2245.527358341984 544.3016313609522Q2245.527358341984 530.5099646942856 2240.19402500865 522.2599646942856Q2234.88152500865 514.0099646942856 2223.777358341983 514.0099646942856ZM2293.38152500865 470.80163136095223L2293.38152500865 584.8016313609522L2280.173191675317 584.8016313609522L2280.173191675317 470.80163136095223L2293.38152500865 470.80163136095223ZM2325.63152500865 474.25996469428554L2325.63152500865 474.25996469428554Q2328.63152500865 474.25996469428554 2330.94402500865 476.28079802761886Q2333.277358341984 478.30163136095223 2333.277358341984 482.65579802761886L2333.277358341984 482.65579802761886Q2333.277358341984 486.84329802761886 2330.94402500865 488.94746469428554Q2328.63152500865 491.05163136095223 2325.63152500865 491.05163136095223L2325.63152500865 491.05163136095223Q2322.31902500865 491.05163136095223 2320.06902500865 488.94746469428554Q2317.81902500865 486.84329802761886 2317.81902500865 482.65579802761886L2317.81902500865 482.65579802761886Q2317.81902500865 478.30163136095223 2320.06902500865 476.28079802761886Q2322.31902500865 474.25996469428554 2325.63152500865 474.25996469428554ZM2318.88152500865 504.40579802761886L2332.06902500865 504.40579802761886L2332.06902500865 584.8016313609522L2318.88152500865 584.8016313609522L2318.88152500865 504.40579802761886ZM2396.277358341984 502.90579802761886L2396.277358341984 502.90579802761886Q2410.673191675317 502.90579802761886 2418.027358341983 509.88496469428554Q2425.38152500865 516.8432980276189 2425.38152500865 532.4474646942856L2425.38152500865 532.4474646942856L2425.38152500865 584.8016313609522L2412.31902500865 584.8016313609522L2412.31902500865 533.3432980276189Q2412.31902500865 514.0099646942856 2394.31902500865 514.0099646942856L2394.31902500865 514.0099646942856Q2380.964858341984 514.0099646942856 2375.88152500865 521.5099646942856Q2370.777358341984 529.0099646942856 2370.777358341984 543.0932980276189L2370.777358341984 543.0932980276189L2370.777358341984 584.8016313609522L2357.56902500865 584.8016313609522L2357.56902500865 504.40579802761886L2368.214858341984 504.40579802761886L2370.173191675317 515.3432980276189L2370.923191675317 515.3432980276189Q2374.81902500865 509.05163136095223 2381.714858341984 505.96829802761886Q2388.63152500865 502.90579802761886 2396.277358341984 502.90579802761886ZM2481.31902500865 502.90579802761886L2481.31902500865 502.90579802761886Q2491.673191675317 502.90579802761886 2499.089858341983 507.40579802761886Q2506.527358341984 511.90579802761886 2510.50652500865 520.0724646942856Q2514.464858341983 528.2599646942856 2514.464858341983 539.1974646942856L2514.464858341983 539.1974646942856L2514.464858341983 547.1557980276189L2459.423191675317 547.1557980276189Q2459.714858341983 560.8016313609522 2466.402358341984 567.9266313609522Q2473.06902500865 575.0516313609522 2485.06902500865 575.0516313609522L2485.06902500865 575.0516313609522Q2492.714858341984 575.0516313609522 2498.652358341984 573.6349646942856Q2504.56902500865 572.1974646942856 2510.88152500865 569.5099646942856L2510.88152500865 569.5099646942856L2510.88152500865 581.0516313609522Q2504.714858341983 583.7599646942856 2498.714858341984 585.0307980276189Q2492.714858341984 586.3016313609522 2484.464858341983 586.3016313609522L2484.464858341983 586.3016313609522Q2473.06902500865 586.3016313609522 2464.298191675317 581.6557980276189Q2455.527358341983 577.0099646942856 2450.652358341983 567.7807980276189Q2445.777358341984 558.5516313609522 2445.777358341984 545.1974646942856L2445.777358341984 545.1974646942856Q2445.777358341984 532.0099646942856 2450.19402500865 522.5516313609522Q2454.63152500865 513.0932980276189 2462.652358341983 508.00996469428554Q2470.673191675317 502.90579802761886 2481.31902500865 502.90579802761886ZM2481.173191675317 513.6974646942856L2481.173191675317 513.6974646942856Q2471.714858341983 513.6974646942856 2466.25652500865 519.7807980276189Q2460.777358341983 525.8432980276189 2459.714858341983 536.6557980276189L2459.714858341983 536.6557980276189L2500.673191675317 536.6557980276189Q2500.527358341984 526.4474646942856 2495.88152500865 520.0724646942856Q2491.214858341983 513.6974646942856 2481.173191675317 513.6974646942856Z " fill="#FFFF" transform="matrix(0.35022558168566703,0,0,0.35022558168566703,-5.629937138812078,108.84627564562888)"/></g></svg>